<svg width="38" height="39" viewBox="0 0 38 39" fill="none" xmlns="http://www.w3.org/2000/svg">
<path d="M17.443 14.7044V10.0369H12.7719V6.92529H17.443V2.25781H20.557V6.92529H25.2281V10.0369H20.557V14.7044H17.443ZM11.2149 34.9301C10.3585 34.9301 9.62545 34.6255 9.01562 34.0161C8.40579 33.4067 8.10087 32.6742 8.10087 31.8185C8.10087 30.9628 8.40579 30.2302 9.01562 29.6209C9.62545 29.0115 10.3585 28.7068 11.2149 28.7068C12.0713 28.7068 12.8044 29.0115 13.4142 29.6209C14.024 30.2302 14.3289 30.9628 14.3289 31.8185C14.3289 32.6742 14.024 33.4067 13.4142 34.0161C12.8044 34.6255 12.0713 34.9301 11.2149 34.9301ZM26.7851 34.9301C25.9287 34.9301 25.1956 34.6255 24.5858 34.0161C23.976 33.4067 23.671 32.6742 23.671 31.8185C23.671 30.9628 23.976 30.2302 24.5858 29.6209C25.1956 29.0115 25.9287 28.7068 26.7851 28.7068C27.6414 28.7068 28.3745 29.0115 28.9844 29.6209C29.5942 30.2302 29.8991 30.9628 29.8991 31.8185C29.8991 32.6742 29.5942 33.4067 28.9844 34.0161C28.3745 34.6255 27.6414 34.9301 26.7851 34.9301ZM1.8728 6.92529V3.81364H6.97204L13.5894 17.8161H24.4885L30.5609 6.92529H34.1031L27.2522 19.2941C26.9667 19.8127 26.584 20.2146 26.1039 20.4999C25.6238 20.7851 25.0983 20.9277 24.5274 20.9277H12.9276L11.2149 24.0394H29.8991V27.151H11.2149C10.0471 27.151 9.15835 26.6454 8.54852 25.6341C7.93868 24.6228 7.91922 23.5985 8.49013 22.5613L10.5921 18.7496L4.98684 6.92529H1.8728Z" fill="white"/>
</svg>
