<svg width="245" height="55" viewBox="0 0 245 55" fill="none" xmlns="http://www.w3.org/2000/svg">
<rect x="0.5" y="0.5" width="244" height="54" rx="5.5" fill="#F8FBFF"/>
<rect x="0.5" y="0.5" width="244" height="54" rx="5.5" stroke="#E0E0E0"/>
<path d="M40 38.1241L47.7598 42.728C49.1808 43.5717 50.9198 42.3244 50.5458 40.747L48.489 32.0895L55.3512 26.2568C56.604 25.1929 55.9309 23.1753 54.2855 23.0469L45.2542 22.2949L41.7202 14.1143C41.0845 12.6286 38.9155 12.6286 38.2798 14.1143L34.7458 22.2765L25.7145 23.0285C24.0691 23.1569 23.396 25.1746 24.6487 26.2384L31.511 32.0712L29.4542 40.7287C29.0802 42.3061 30.8192 43.5534 32.2402 42.7096L40 38.1241Z" fill="#E0EFFF"/>
<path d="M122.5 38.1241L130.017 42.728C131.394 43.5717 133.079 42.3244 132.716 40.747L130.724 32.0895L137.372 26.2568C138.585 25.1929 137.933 23.1753 136.339 23.0469L127.59 22.2949L124.166 14.1143C123.551 12.6286 121.449 12.6286 120.834 14.1143L117.41 22.2765L108.661 23.0285C107.067 23.1569 106.415 25.1746 107.628 26.2384L114.276 32.0712L112.284 40.7287C111.921 42.3061 113.606 43.5534 114.983 42.7096L122.5 38.1241Z" fill="#E0EFFF"/>
<path d="M81 38.1241L88.7598 42.728C90.1808 43.5717 91.9198 42.3244 91.5458 40.747L89.489 32.0895L96.3512 26.2568C97.604 25.1929 96.9309 23.1753 95.2855 23.0469L86.2542 22.2949L82.7202 14.1143C82.0845 12.6286 79.9155 12.6286 79.2798 14.1143L75.7458 22.2765L66.7145 23.0285C65.0691 23.1569 64.396 25.1746 65.6487 26.2384L72.511 32.0712L70.4542 40.7287C70.0802 42.3061 71.8192 43.5534 73.2402 42.7096L81 38.1241Z" fill="#E0EFFF"/>
<path d="M164 38.1241L171.76 42.728C173.181 43.5717 174.92 42.3244 174.546 40.747L172.489 32.0895L179.351 26.2568C180.604 25.1929 179.931 23.1753 178.285 23.0469L169.254 22.2949L165.72 14.1143C165.084 12.6286 162.916 12.6286 162.28 14.1143L158.746 22.2765L149.715 23.0285C148.069 23.1569 147.396 25.1746 148.649 26.2384L155.511 32.0712L153.454 40.7287C153.08 42.3061 154.819 43.5534 156.24 42.7096L164 38.1241Z" fill="#E0EFFF"/>
<path d="M205 38.1241L212.76 42.728C214.181 43.5717 215.92 42.3244 215.546 40.747L213.489 32.0895L220.351 26.2568C221.604 25.1929 220.931 23.1753 219.285 23.0469L210.254 22.2949L206.72 14.1143C206.084 12.6286 203.916 12.6286 203.28 14.1143L199.746 22.2765L190.715 23.0285C189.069 23.1569 188.396 25.1746 189.649 26.2384L196.511 32.0712L194.454 40.7287C194.08 42.3061 195.819 43.5534 197.24 42.7096L205 38.1241Z" fill="#E0EFFF"/>
</svg>
