<svg width="33" height="28" viewBox="0 0 33 28" fill="none" xmlns="http://www.w3.org/2000/svg">
<path d="M28.875 21.883V13.9441C28.875 12.6851 28.875 12.0556 28.7008 11.4847C28.5465 10.9794 28.2937 10.5096 27.9569 10.1025C27.5764 9.64266 27.051 9.29593 26.0001 8.60246L20.0251 4.65936C18.7503 3.81808 18.1129 3.39744 17.4249 3.23391C16.8168 3.08939 16.1832 3.08939 15.5751 3.23391C14.8871 3.39744 14.2497 3.81808 12.9749 4.65936L12.9749 4.65936L6.99986 8.60246L6.99986 8.60246C5.94904 9.29593 5.42363 9.64266 5.04315 10.1025C4.70632 10.5096 4.45348 10.9794 4.29924 11.4847C4.125 12.0556 4.125 12.6851 4.125 13.9441V21.883C4.125 23.0031 4.125 23.5632 4.34299 23.991C4.53473 24.3673 4.84069 24.6733 5.21702 24.865C5.64484 25.083 6.20489 25.083 7.325 25.083H9.20833C9.65359 25.083 9.87623 25.083 10.0616 25.0477C10.868 24.8942 11.4986 24.2635 11.6522 23.4571C11.6875 23.2717 11.6875 23.0491 11.6875 22.6038V19.9788C11.6875 17.321 13.8421 15.1663 16.5 15.1663C19.1579 15.1663 21.3125 17.321 21.3125 19.9788V22.6038C21.3125 23.0491 21.3125 23.2717 21.3478 23.4571C21.5014 24.2635 22.132 24.8942 22.9384 25.0477C23.1238 25.083 23.3464 25.083 23.7917 25.083H25.675C26.7951 25.083 27.3552 25.083 27.783 24.865C28.1593 24.6733 28.4653 24.3673 28.657 23.991C28.875 23.5632 28.875 23.0031 28.875 21.883Z" stroke="#828282" stroke-width="1.8"/>
</svg>
