<svg width="133" height="133" viewBox="0 0 133 133" fill="none" xmlns="http://www.w3.org/2000/svg">
<path d="M102.302 98.1159V85.5036C102.302 84.7725 102.028 84.1328 101.479 83.5844C100.931 83.036 100.291 82.7619 99.5602 82.7619C98.8291 82.7619 98.1893 83.036 97.641 83.5844C97.0926 84.1328 96.8185 84.7725 96.8185 85.5036V98.1159C96.8185 98.847 96.9555 99.5325 97.2297 100.172C97.5039 100.812 97.9152 101.406 98.4635 101.954L106.826 110.317C107.374 110.865 108.014 111.139 108.745 111.139C109.476 111.139 110.116 110.865 110.664 110.317C111.213 109.768 111.487 109.129 111.487 108.398C111.487 107.666 111.213 107.027 110.664 106.478L102.302 98.1159ZM28.2738 115.663C25.2578 115.663 22.676 114.589 20.5282 112.442C18.3805 110.294 17.3066 107.712 17.3066 104.696V27.9261C17.3066 24.9102 18.3805 22.3283 20.5282 20.1806C22.676 18.0329 25.2578 16.959 28.2738 16.959H105.044C108.06 16.959 110.642 18.0329 112.789 20.1806C114.937 22.3283 116.011 24.9102 116.011 27.9261V64.6661C114.274 63.8435 112.492 63.1352 110.664 62.5412C108.837 61.9471 106.963 61.513 105.044 61.2388V27.9261H28.2738V104.696H61.4494C61.7236 106.707 62.1577 108.626 62.7518 110.454C63.3458 112.282 64.0541 114.018 64.8766 115.663H28.2738ZM28.2738 99.2126V104.696V27.9261V61.2388V60.8276V99.2126ZM39.2409 88.2454C39.2409 89.7991 39.7664 91.1015 40.8175 92.1525C41.8685 93.2035 43.1708 93.729 44.7245 93.729H61.5865C61.8607 91.8098 62.2948 89.9362 62.8888 88.1083C63.4829 86.2805 64.1455 84.4983 64.8766 82.7619H44.7245C43.1708 82.7619 41.8685 83.2874 40.8175 84.3384C39.7664 85.3894 39.2409 86.6918 39.2409 88.2454ZM39.2409 66.3111C39.2409 67.8648 39.7664 69.1672 40.8175 70.2182C41.8685 71.2692 43.1708 71.7947 44.7245 71.7947H72.6907C75.6153 69.0529 78.8826 66.7681 82.4926 64.9403C86.1026 63.1124 89.964 61.8786 94.0767 61.2388C93.2541 61.0561 92.3402 60.9418 91.3349 60.8961C90.3296 60.8504 89.4156 60.8276 88.5931 60.8276H44.7245C43.1708 60.8276 41.8685 61.3531 40.8175 62.4041C39.7664 63.4551 39.2409 64.7575 39.2409 66.3111ZM39.2409 44.3769C39.2409 45.9305 39.7664 47.2329 40.8175 48.2839C41.8685 49.3349 43.1708 49.8604 44.7245 49.8604H88.5931C90.1468 49.8604 91.4491 49.3349 92.5001 48.2839C93.5512 47.2329 94.0767 45.9305 94.0767 44.3769C94.0767 42.8232 93.5512 41.5208 92.5001 40.4698C91.4491 39.4188 90.1468 38.8933 88.5931 38.8933H44.7245C43.1708 38.8933 41.8685 39.4188 40.8175 40.4698C39.7664 41.5208 39.2409 42.8232 39.2409 44.3769ZM99.5602 126.63C91.9746 126.63 85.5086 123.957 80.1621 118.611C74.8156 113.264 72.1424 106.798 72.1424 99.2126C72.1424 91.627 74.8156 85.1609 80.1621 79.8144C85.5086 74.468 91.9746 71.7947 99.5602 71.7947C107.146 71.7947 113.612 74.468 118.958 79.8144C124.305 85.1609 126.978 91.627 126.978 99.2126C126.978 106.798 124.305 113.264 118.958 118.611C113.612 123.957 107.146 126.63 99.5602 126.63Z" fill="#2F2BE0"/>
</svg>
