<svg width="133" height="133" viewBox="0 0 133 133" fill="none" xmlns="http://www.w3.org/2000/svg">
<path d="M84.1627 63.7063L99.2425 54.9326C100.156 54.3842 100.613 53.6074 100.613 52.602C100.613 51.5967 100.156 50.8199 99.2425 50.2715L84.1627 41.4978C83.3402 41.0408 82.4262 40.8124 81.4209 40.8124C80.4156 40.8124 79.5017 41.0408 78.6791 41.4978L63.5993 50.2715C62.6854 50.8199 62.2284 51.5967 62.2284 52.602C62.2284 53.6074 62.6854 54.3842 63.5993 54.9326L78.6791 63.7063C79.5017 64.1632 80.4156 64.3917 81.4209 64.3917C82.4262 64.3917 83.3402 64.1632 84.1627 63.7063ZM84.1627 80.2941L93.759 74.8105C94.5815 74.3535 95.2441 73.6909 95.7468 72.8227C96.2494 71.9545 96.5008 71.0177 96.5008 70.0124V61.6499L84.1627 68.7786C83.3402 69.2355 82.4262 69.464 81.4209 69.464C80.4156 69.464 79.5017 69.2355 78.6791 68.7786L66.3411 61.6499V70.0124C66.3411 71.0177 66.5924 71.9545 67.0951 72.8227C67.5978 73.6909 68.2604 74.3535 69.0829 74.8105L78.6791 80.2941C79.5017 80.751 80.4156 80.9795 81.4209 80.9795C82.4262 80.9795 83.3402 80.751 84.1627 80.2941ZM110.21 110.18H82.7918C82.7918 108.352 82.7233 106.524 82.5862 104.696C82.4491 102.868 82.2435 101.04 81.9693 99.2124H110.21V33.4095H22.4725V39.7156C20.6447 39.4415 18.8168 39.2358 16.9889 39.0987C15.1611 38.9616 13.3332 38.8931 11.5054 38.8931V33.4095C11.5054 30.3936 12.5792 27.8117 14.727 25.664C16.8747 23.5162 19.4566 22.4424 22.4725 22.4424H110.21C113.226 22.4424 115.808 23.5162 117.955 25.664C120.103 27.8117 121.177 30.3936 121.177 33.4095V99.2124C121.177 102.228 120.103 104.81 117.955 106.958C115.808 109.106 113.226 110.18 110.21 110.18ZM44.4068 110.18C42.9445 110.18 41.665 109.745 40.5683 108.877C39.4716 108.009 38.7861 106.844 38.512 105.381C37.5066 99.6237 34.9248 94.7342 30.7664 90.7129C26.608 86.6916 21.65 84.1783 15.8922 83.173C14.5213 82.9902 13.4475 82.3276 12.6706 81.1852C11.8938 80.0428 11.5054 78.7404 11.5054 77.2781C11.5054 75.7244 12.008 74.4221 13.0134 73.3711C14.0187 72.3201 15.2068 71.8859 16.5777 72.0687C25.1686 73.1654 32.5029 76.7755 38.5805 82.8988C44.6581 89.0221 48.291 96.3792 49.4791 104.97C49.6619 106.432 49.2506 107.666 48.2453 108.672C47.24 109.677 45.9605 110.18 44.4068 110.18ZM66.3411 110.18C64.7874 110.18 63.4851 109.677 62.4341 108.672C61.383 107.666 60.7661 106.387 60.5834 104.833C59.3038 93.1348 54.5286 83.2187 46.2575 75.0847C37.9865 66.9507 28.0018 62.2897 16.3035 61.1016C14.8412 60.9188 13.676 60.279 12.8077 59.1823C11.9395 58.0856 11.5054 56.8061 11.5054 55.3438C11.5054 53.7901 11.9852 52.4649 12.9448 51.3682C13.9044 50.2715 15.0697 49.8146 16.4406 49.9973C31.1548 51.1854 43.6757 56.9204 54.0031 67.2021C64.3305 77.4838 70.1796 89.936 71.5505 104.559C71.7333 106.113 71.2992 107.438 70.2481 108.534C69.1971 109.631 67.8948 110.18 66.3411 110.18ZM18.3598 110.18C16.4406 110.18 14.8184 109.517 13.4932 108.192C12.168 106.867 11.5054 105.244 11.5054 103.325C11.5054 101.406 12.168 99.7836 13.4932 98.4584C14.8184 97.1332 16.4406 96.4706 18.3598 96.4706C20.2791 96.4706 21.9013 97.1332 23.2265 98.4584C24.5517 99.7836 25.2143 101.406 25.2143 103.325C25.2143 105.244 24.5517 106.867 23.2265 108.192C21.9013 109.517 20.2791 110.18 18.3598 110.18Z" fill="#2F2BE0"/>
</svg>
