<svg width="133" height="133" viewBox="0 0 133 133" fill="none" xmlns="http://www.w3.org/2000/svg">
<path d="M33.8729 97.9786C32.045 96.9733 30.6284 95.6253 29.6231 93.9345C28.6178 92.2437 28.1151 90.3473 28.1151 88.2453V61.9241L14.9546 54.6584C13.9492 54.11 13.2181 53.4246 12.7611 52.602C12.3042 51.7795 12.0757 50.8656 12.0757 49.8603C12.0757 48.8549 12.3042 47.941 12.7611 47.1185C13.2181 46.2959 13.9492 45.6105 14.9546 45.0621L61.2908 19.8377C62.1133 19.3807 62.9587 19.038 63.8269 18.8095C64.6951 18.581 65.5862 18.4668 66.5001 18.4668C67.4141 18.4668 68.3052 18.581 69.1734 18.8095C70.0416 19.038 70.887 19.3807 71.7095 19.8377L123.941 48.3523C124.854 48.8092 125.563 49.4718 126.065 50.3401C126.568 51.2083 126.819 52.1451 126.819 53.1504V88.2453C126.819 89.799 126.294 91.1013 125.243 92.1523C124.192 93.2033 122.89 93.7288 121.336 93.7288C119.782 93.7288 118.48 93.2033 117.429 92.1523C116.378 91.1013 115.852 89.799 115.852 88.2453V55.8922L104.885 61.9241V88.2453C104.885 90.3473 104.382 92.2437 103.377 93.9345C102.372 95.6253 100.955 96.9733 99.1274 97.9786L71.7095 112.784C70.887 113.241 70.0416 113.584 69.1734 113.812C68.3052 114.041 67.4141 114.155 66.5001 114.155C65.5862 114.155 64.6951 114.041 63.8269 113.812C62.9587 113.584 62.1133 113.241 61.2908 112.784L33.8729 97.9786ZM66.5001 70.1495L104.063 49.8603L66.5001 29.571L28.9377 49.8603L66.5001 70.1495ZM66.5001 103.188L93.918 88.3824V67.6819L71.8466 79.8828C71.0241 80.3398 70.1559 80.6825 69.2419 80.911C68.328 81.1395 67.4141 81.2537 66.5001 81.2537C65.5862 81.2537 64.6723 81.1395 63.7584 80.911C62.8444 80.6825 61.9762 80.3398 61.1537 79.8828L39.0823 67.6819V88.3824L66.5001 103.188Z" fill="#2F2BE0"/>
</svg>
